<?xml version="1.0" encoding="utf-8"?>
<!-- Generator: Adobe Illustrator 23.0.2, SVG Export Plug-In . SVG Version: 6.00 Build 0)  -->
<svg version="1.1" id="图层_1" xmlns="http://www.w3.org/2000/svg" xmlns:xlink="http://www.w3.org/1999/xlink" x="0px" y="0px"
	 viewBox="0 0 200 200" style="enable-background:new 0 0 200 200;" xml:space="preserve">
<path d="M174.3,5L99.8,79.5L25.3,5C19.5-0.5,10.4-0.1,5,5.7c-5.1,5.5-5.1,14.1,0,19.6l74.5,74.5L5,174.3c-5.9,5.6-6.1,14.9-0.5,20.8
	c5.6,5.9,14.9,6.1,20.8,0.5l74.5-75.5l74.5,75.5c5.9,5.9,15.4,5.9,21.3,0s5.9-15.4,0-21.3l-75.5-74.5l75.5-74.5
	c5.4-5.8,5.1-14.9-0.7-20.3c-5.5-5.1-14.1-5.1-19.6,0L174.3,5z"/>
</svg>
