<svg t="1621322765240" class="icon" viewBox="0 0 1024 1024" version="1.1" xmlns="http://www.w3.org/2000/svg" p-id="8596" width="200" height="200"><path d="M512 544c96.416 0 190.336 18.336 264.448 47.776l-49.92 49.92A707.36 707.36 0 0 0 512 608c-37.248 0-73.92 3.136-108.704 8.608l-18.784 3.2-9.216 1.76-18.144 3.84c-17.92 4-35.072 8.608-51.264 13.632l-15.904 5.184c-5.184 1.76-10.24 3.584-15.2 5.44l-14.464 5.664C199.2 680.288 160 710.912 160 736v128h296.704l64 64H160a64 64 0 0 1-63.84-59.2L96 864v-128c0-67.648 89.696-130.432 212.96-164.8l18.752-4.896A772.16 772.16 0 0 1 512 544z m368.96 101.344a32 32 0 0 1 2.496 42.464l-2.464 2.784-203.648 203.648a64 64 0 0 1-87.04 3.232l-3.488-3.232-90.496-90.528a32 32 0 0 1 42.464-47.744l2.784 2.496 90.496 90.528 203.648-203.648a32 32 0 0 1 45.28 0zM512 96a192 192 0 1 1 0 384 192 192 0 0 1 0-384z m0 64a128 128 0 1 0 0 256 128 128 0 0 0 0-256z" fill="#2faaf7" p-id="8597"></path></svg>