<svg t="1592289150287" class="icon" viewBox="0 0 1024 1024" version="1.1" xmlns="http://www.w3.org/2000/svg" p-id="4083" width="200" height="200"><path d="M617.35 705.28c-12.48-12.49-12.48-32.73 0-45.23L733.4 544H213.3c-17.67-0.02-31.98-14.36-31.96-32.04 0.02-17.64 14.32-31.94 31.96-31.96h520.02L617.35 363.99c-12.5-12.5-12.5-32.77 0-45.27s32.77-12.5 45.27 0l170.67 170.67c12.49 12.47 12.5 32.71 0.03 45.19l-0.03 0.03-170.67 170.67c-12.49 12.5-32.75 12.51-45.25 0.01-0.01 0-0.02 0-0.02-0.01z" p-id="4084" fill="#666"></path></svg>