<svg t="1621324551456" class="icon" viewBox="0 0 1024 1024" version="1.1" xmlns="http://www.w3.org/2000/svg" p-id="12022" width="200" height="200"><path d="M106.666667 160v704a21.333333 21.333333 0 0 0 21.333333 21.333333h225.92a32 32 0 0 0 32-32 32 32 0 0 0-32-32H170.666667v-618.666666h183.253333a32 32 0 0 0 32-32 32 32 0 0 0-32-32H128a21.333333 21.333333 0 0 0-21.333333 21.333333z m789.333333-21.333333H673.92a32 32 0 0 0-32 32 32 32 0 0 0 32 32H853.333333v618.666666h-179.413333a32 32 0 0 0-32 32 32 32 0 0 0 32 32H896a21.333333 21.333333 0 0 0 21.333333-21.333333v-704a21.333333 21.333333 0 0 0-21.333333-21.333333z" fill="#2faaf7" p-id="12023"></path><path d="M481.92 106.666667m32 0l0 0q32 0 32 32l0 64q0 32-32 32l0 0q-32 0-32-32l0-64q0-32 32-32Z" fill="#2faaf7" p-id="12024"></path><path d="M481.92 334.293333m32 0l0 0q32 0 32 32l0 64q0 32-32 32l0 0q-32 0-32-32l0-64q0-32 32-32Z" fill="#2faaf7" p-id="12025"></path><path d="M481.92 561.706667m32 0l0 0q32 0 32 32l0 64q0 32-32 32l0 0q-32 0-32-32l0-64q0-32 32-32Z" fill="#2faaf7" p-id="12026"></path><path d="M481.92 789.333333m32 0l0 0q32 0 32 32l0 64q0 32-32 32l0 0q-32 0-32-32l0-64q0-32 32-32Z" fill="#2faaf7" p-id="12027"></path></svg>