<svg t="1624450198945" class="icon" viewBox="0 0 1024 1024" version="1.1" xmlns="http://www.w3.org/2000/svg" p-id="4863" width="200" height="200"><path d="M973.312 187.904h-172.544V121.856c0-60.928-49.664-111.104-110.592-111.616H334.336c-61.44 0-111.616 50.176-111.616 111.616v66.048H50.688c-22.528 0-40.448 18.432-40.448 40.448 0 22.528 18.432 40.448 40.448 40.448H972.8c22.528 0 40.448-18.432 40.448-40.448 0.512-22.528-17.92-40.448-39.936-40.448zM304.128 121.856c0-16.896 13.824-30.208 30.208-30.208h355.328c16.384 0 29.696 13.312 29.696 29.696v66.56H304.128V121.856zM831.488 330.752c-22.528 0-40.448 18.432-40.448 40.448v531.456c0 16.896-13.824 30.208-30.208 30.208h-496.64c-16.896 0-30.208-13.824-30.208-30.208v-532.48c0-22.528-18.432-40.448-40.448-40.448-22.528 0-40.448 18.432-40.448 40.448v531.968c0 61.44 50.176 111.616 111.616 111.616h496.64c61.44 0 111.616-50.176 111.616-111.616V371.2c-1.024-22.528-19.456-40.448-41.472-40.448z" fill="#d81e06" p-id="4864"></path><path d="M405.504 532.992c-22.528 0-40.448 18.432-40.448 40.448v202.24c0 18.432 12.8 34.304 29.696 38.912l-1.536 1.536h17.408v-0.512c19.968-2.56 35.328-19.456 35.328-39.936V573.44c0-22.016-17.92-40.448-40.448-40.448zM405.504 329.728c-22.528 0-40.448 18.432-40.448 40.448v88.064c0 18.432 12.8 34.304 29.696 38.912l-1.536 1.536h17.408v-0.512c19.968-2.56 35.328-19.456 35.328-39.936V370.176c0-22.016-17.92-40.448-40.448-40.448zM623.616 329.728l-17.408-0.512 1.536 1.536c-16.896 4.608-29.696 20.48-29.696 38.912v202.24c0 22.528 18.432 40.448 40.448 40.448s40.448-18.432 40.448-40.448V370.176c0-20.48-15.36-37.376-35.328-40.448zM623.616 647.168l-17.408-0.512 1.536 1.536c-16.896 4.608-29.696 20.48-29.696 38.912v88.064c0 22.528 18.432 40.448 40.448 40.448s40.448-18.432 40.448-40.448v-88.576c0-19.968-15.36-36.864-35.328-39.424z" fill="#d81e06" p-id="4865"></path></svg>