<svg t="1623260366857" class="icon" viewBox="0 0 1024 1024" version="1.1" xmlns="http://www.w3.org/2000/svg" p-id="7251" width="200" height="200"><path d="M808 261.44a435.84 435.84 0 0 0-54.72-35.84 496.64 496.64 0 0 0-241.28-64C264.64 162.24 64 352 64 512c0 87.36 58.56 182.4 151.36 251.52l2.88 1.92a504.96 504.96 0 0 0 52.48 32 498.56 498.56 0 0 0 241.28 64C759.68 861.76 960 672 960 512c0-86.4-58.56-181.76-152-250.56zM512 797.76a433.28 433.28 0 0 1-192-46.72 416 416 0 0 1-56.64-33.92C180.48 660.48 128 582.08 128 512c0-114.88 160-285.76 384-285.76a427.52 427.52 0 0 1 194.24 46.4 393.6 393.6 0 0 1 56.32 34.24C845.76 366.4 896 448 896 512c0 114.88-160 285.76-384 285.76z" fill="#00b3d9" p-id="7252"></path><path d="M656.96 412.48a169.28 169.28 0 0 0-45.12-45.44 176 176 0 1 0-199.36 289.92 174.08 174.08 0 0 0 99.52 32 175.68 175.68 0 0 0 144.96-275.52zM512 624a110.08 110.08 0 0 1-53.12-13.44 112 112 0 1 1 151.68-151.68A110.08 110.08 0 0 1 624 512a112 112 0 0 1-112 112z" fill="#00b3d9" p-id="7253"></path></svg>