<svg t="1621135950441" class="icon" viewBox="0 0 1024 1024" version="1.1" xmlns="http://www.w3.org/2000/svg" p-id="30468" width="200" height="200"><path d="M552.96 102.912c0-19.456-13.312-39.424-35.84-39.424-17.92 0-35.84 19.456-35.84 39.424v136.192h71.68V102.912z m271.872 149.504c13.824-15.872 13.824-39.936-0.512-55.808-12.8-13.824-37.888-13.312-50.688 0.512l-86.528 97.28 51.2 55.296 86.528-97.28zM302.08 349.696l50.176-56.32-88.576-94.72c-6.144-6.656-14.848-10.752-24.064-11.264-10.24 0-19.968 4.096-26.624 12.288-12.8 14.336-12.288 41.472 0.512 55.808 0-0.512 88.576 94.208 88.576 94.208zM243.2 487.424H126.976c-17.92 0-35.84 19.456-35.84 39.424 0 19.968 17.92 39.424 35.84 39.424h116.224V487.424z m663.04 0h-116.224v78.848H906.24c17.92 0 35.84-19.456 35.84-39.424 0-19.968-17.408-39.424-35.84-39.424z m-315.392 77.312H506.88l72.704-67.584c13.824-13.312 15.36-34.304 3.584-49.664-11.264-14.848-31.744-16.896-45.056-4.096l-112.64 104.96-1.536 2.048c-13.312 14.848-16.896 35.84-10.24 54.272 7.168 18.944 23.552 30.72 41.984 30.72h85.504l-79.872 77.824c-13.312 13.312-14.336 34.816-2.56 49.664 5.632 7.168 14.848 11.776 24.064 11.776 8.192 0 15.872-3.072 21.504-8.704l118.272-115.2 2.56-2.56c12.288-14.848 15.36-35.84 8.192-53.76-7.68-17.92-24.064-29.696-42.496-29.696z" p-id="30469" fill="#ffffff"></path><path d="M337.92 838.144v-291.84C337.92 437.248 418.816 348.16 518.656 348.16c99.328 0 180.224 89.088 180.224 198.144v291.84H337.92z m478.208 0h-50.688v-291.84c0-150.016-111.104-271.36-247.296-271.36s-247.296 121.856-247.296 271.36v291.84H220.16c-18.432 0-33.28 16.384-33.28 36.864s14.848 36.864 33.28 36.864h596.48c18.432 0 33.28-16.384 33.28-36.864 0-19.968-14.848-36.864-33.792-36.864z" p-id="30470" fill="#ffffff"></path></svg>