<svg t="1621319101393" class="icon" viewBox="0 0 1024 1024" version="1.1" xmlns="http://www.w3.org/2000/svg" p-id="2393" width="200" height="200"><path d="M777.9 126.8H246.2c-68.9 0-125 56.1-125 125v347c0 68.9 56.1 125 125 125h531.6c68.9 0 125-56.1 125.1-125v-347c0-68.9-56.1-125-125-125z m75 472c-0.1 41.4-33.8 75-75.1 75H246.2c-41.4 0-75-33.6-75-75v-347c0-41.4 33.6-75 75-75h531.7c41.4 0 75 33.6 75 75v347zM618.2 805.9c13.8 0 25-11.2 25-25s-11.2-25-25-25H405.8c-13.8 0-25 11.2-25 25s11.2 25 25 25h212.4z m135.2 37.3H270.6c-13.8 0-25 11.2-25 25s11.2 25 25 25h482.8c13.8 0 25-11.2 25-25s-11.2-25-25-25z" p-id="2394" fill="#2faaf7"></path><path d="M467 430.3a45 45 0 1 0 90 0 45 45 0 1 0-90 0zM287 430.3a45 45 0 1 0 90 0 45 45 0 1 0-90 0zM647 430.3a45 45 0 1 0 90 0 45 45 0 1 0-90 0z" p-id="2395" fill="#2faaf7"></path></svg>