<svg t="1626705678515" class="icon" viewBox="0 0 1024 1024" version="1.1" xmlns="http://www.w3.org/2000/svg" p-id="1808" width="200" height="200"><path d="M492.566481 9.783143c18.536542-13.395048 43.731035-13.017888 61.874784 1.03084l386.901822 299.573614 0.581374 0.462168c8.472424 6.90418 12.093552 17.642496 10.298621 27.764263 0.258931 1.453923 0.410382 2.943999 0.447512 4.463388V748.194314c0 74.937617-60.12773 135.828462-134.759516 137.038111l-2.26687 0.018565H218.12678c-74.92003 0-135.797195-60.140433-137.006843-134.790784l-0.018565-2.265892V343.76627c0-1.752915 0.154382-3.469678 0.450442-5.138562-1.870167-10.503812 2.102717-21.65251 11.214164-28.497088l399.022733-299.77392z m401.699007 370.824639L550.642304 660.593496c-18.535565 15.103017-44.969019 15.491902-63.923759 1.055267l-0.744549-0.578443-346.469473-273.912068v361.038016c0 42.996257 34.499405 77.933402 77.320761 78.627143l1.300519 0.010748h597.519382c42.986486 0 77.915815-34.507222 78.610532-77.337372l0.009771-1.301496V380.607782zM522.752973 60.156496L162.449735 330.836322l355.495911 281.04782L867.488095 327.078399 522.752973 60.156496z" fill="#666" dark="#fff" p-id="1809"></path></svg>