<svg t="1620986231938" class="icon" viewBox="0 0 1024 1024" version="1.1" xmlns="http://www.w3.org/2000/svg" p-id="2566" width="200" height="200"><path d="M509.44 819.2a457.3696 457.3696 0 0 1-263.808-83.14368A462.96064 462.96064 0 0 1 78.848 522.99264a30.5152 30.5152 0 0 1 0-21.9904 462.93504 462.93504 0 0 1 166.784-213.05856 460.08832 460.08832 0 0 1 527.616 0A462.90944 462.90944 0 0 1 940.032 501.00224a30.55104 30.55104 0 0 1 0 21.9904 462.94016 462.94016 0 0 1-166.784 213.06368A457.35936 457.35936 0 0 1 509.44 819.2z m-369.69472-307.2a400.55808 400.55808 0 0 0 739.38944 0 400.55808 400.55808 0 0 0-739.38944 0z" fill="#aaaaaa" p-id="2567" data-spm-anchor-id="a313x.7781069.0.i1" class="selected"></path><path d="M509.44 682.01472a170.74688 170.74688 0 1 1 170.12736-170.74688A170.62912 170.62912 0 0 1 509.44 682.01472z m0-280.6528a109.90592 109.90592 0 1 0 109.51168 109.90592A109.83424 109.83424 0 0 0 509.44 401.36192z" fill="#aaaaaa" p-id="2568" data-spm-anchor-id="a313x.7781069.0.i0" class="selected"></path></svg>