<svg t="1623005528961" class="icon" viewBox="0 0 1024 1024" version="1.1" xmlns="http://www.w3.org/2000/svg" p-id="6283" width="200" height="200"><path d="M306.3 589c-17.5 0-31.4-13.9-31.4-31.4s13.9-31.4 31.4-31.4h411.9c17.5 0 31.4 13.9 31.4 31.4S735.7 589 718.2 589H306.3z m0-150.9c-17.5 0-31.4-13.9-31.4-31.4s13.9-31.4 31.4-31.4h308.4c17.5 0 31.4 13.9 31.4 31.4s-13.9 31.4-31.4 31.4H306.3z m0-158.6c-17.5 0-31.4-13.9-31.4-31.4s13.9-31.4 31.4-31.4h411.9c17.5 0 31.4 13.9 31.4 31.4s-13.9 31.4-31.4 31.4H306.3zM193.5 1021c-59.2 0-107.6-47.9-107.6-107.1V109.1C85.9 49.9 133.8 2 193.5 2h636.9C889.6 2 938 49.9 938 109.1v643.6c0 7.7-2.6 16-7.2 22.1l-185.4 233.8c-6.7 8.8-17 13.4-27.8 13.4-0.4-1-524.1-1-524.1-1z m0-949c-20.1 0-36.6 16.5-36.6 36.6v805.3c0 20.1 16.5 36.6 36.6 36.6H659V806.8c0-59.2 47.9-107.1 107.6-107.1h100.9V109.1c0-20.1-16.5-36.6-36.6-36.6L193.5 72z m573.1 698.7c-20.1 0-36.6 16.5-36.6 36.6v106.6l113.3-143.1h-76.7z" p-id="6284" fill="#2faaf7"></path></svg>