<svg t="1599342315875" class="icon" viewBox="0 0 1024 1024" version="1.1" xmlns="http://www.w3.org/2000/svg" p-id="1163" data-spm-anchor-id="a313x.7781069.0.i2" width="200" height="200"><path d="M512 85.333333C276.48 85.333333 85.333333 276.48 85.333333 512s191.146667 426.666667 426.666667 426.666667 426.666667-191.146667 426.666667-426.666667S747.52 85.333333 512 85.333333z m0 785.066667c-197.546667 0-358.4-160.853333-358.4-358.4s160.853333-358.4 358.4-358.4 358.4 160.853333 358.4 358.4-160.853333 358.4-358.4 358.4z" fill="#ffffff" p-id="1164" data-spm-anchor-id="a313x.7781069.0.i1" class=""></path><path d="M435.2 412.16v199.68c0 22.186667 24.32 35.413333 43.093333 23.893333l166.4-101.973333c16.213333-9.813333 16.213333-33.706667 0-43.52l-166.4-101.973333c-18.773333-11.52-43.093333 1.706667-43.093333 23.893333z" fill="#ffffff" p-id="1165" data-spm-anchor-id="a313x.7781069.0.i0" class=""></path></svg>