<svg t="1626427057588" class="icon" viewBox="0 0 1024 1024" version="1.1" xmlns="http://www.w3.org/2000/svg" p-id="4121" width="200" height="200"><path d="M512 922c-46.9 0-92.4-9.2-135.3-27.3-41.4-17.5-78.5-42.5-110.4-74.4s-56.9-69-74.4-110.4c-18.1-42.8-27.3-88.3-27.3-135.2 0-19.3 15.7-35 35-35s35 15.7 35 35C234.6 727.6 359 852 512 852s277.4-124.5 277.4-277.5S665 297.1 512 297.1c-19.3 0-35-15.7-35-35s15.7-35 35-35c46.9 0 92.4 9.2 135.3 27.3 41.4 17.5 78.5 42.5 110.4 74.4s56.9 69 74.4 110.4c18.1 42.8 27.3 88.3 27.3 135.2s-9.2 92.4-27.3 135.2c-17.5 41.4-42.5 78.5-74.4 110.4s-69 57-110.4 74.5C604.4 912.8 558.9 922 512 922z" fill="#666" p-id="4122" dark="#eee"></path><path d="M551.9 455.7c-12.8 0-25.2-7.1-31.3-19.3L426 247.3c-4.2-8.3-4.8-17.9-1.9-26.7s9.2-16.1 17.6-20.2l189.2-94.6c17.3-8.6 38.3-1.6 47 15.7s1.6 38.3-15.7 47l-157.9 78.9L583.2 405c8.6 17.3 1.6 38.3-15.6 47-5.1 2.5-10.4 3.7-15.7 3.7z" fill="#666" p-id="4123" dark="#eee"></path></svg>