<svg t="1626705815248" class="icon" viewBox="0 0 1024 1024" version="1.1" xmlns="http://www.w3.org/2000/svg" p-id="2341" width="200" height="200"><path d="M890.256587 198.330044c-9.406616-4.568039-21.888393-7.721869-38.638555-7.721869L170.276942 190.608176c-16.749139 0-29.229893 3.154853-38.637532 7.721869-38.692793 15.714913-66.18197 54.079686-66.18197 98.996688l0 426.930509c0 44.617174 27.080861 82.818217 65.365338 98.724489 9.326795 4.675486 21.970261 7.995091 39.454164 7.995091l681.34109 0c17.484926 0 30.127369-3.318582 39.454164-7.995091 38.25787-15.906272 65.367385-54.107315 65.367385-98.724489L956.43958 297.325709C956.43958 252.40973 928.948356 214.044958 890.256587 198.330044zM904.015502 297.325709l0 426.930509c0 6.90527-1.38766 13.486152-3.752618 19.549242-3.371932-3.997034-7.206418-8.074909-11.936333-12.290931L670.393311 537.327852l225.03016-243.454778c2.745643-2.963495 4.920258-5.819542 7.095896-8.673543C903.445497 289.088094 904.015502 293.139364 904.015502 297.325709zM851.618031 243.980757c4.81383 0 9.381032 0.870834 13.813153 2.121314-1.277138 2.582825-3.669726 6.360871-8.156085 11.174504L545.751556 594.316797c-18.652566 20.174482-50.95455 20.174482-69.60814 0L164.62192 257.276574c-4.486358-4.813632-6.878946-8.591679-8.157108-11.174504 4.432121-1.251503 9.000347-2.121314 13.813153-2.121314L851.618031 243.980757zM121.633112 743.804437c-2.365981-6.063089-3.752618-12.642948-3.752618-19.549242L117.880494 297.325709c0-4.186346 0.571028-8.238638 1.468505-12.126178 2.201222 2.855024 4.350253 5.710049 7.123526 8.673543l225.029136 243.454778-217.932217 194.186677C128.838506 735.730551 125.005044 739.807403 121.633112 743.804437zM170.276942 777.60117c-2.556324 0-5.029756-0.379647-7.477605-0.760317 1.413244-1.52268 3.099721-3.235694 5.274336-5.194302l219.374115-195.436134 50.547257 54.677297c19.333093 20.909216 45.244267 32.43676 72.952441 32.43676 27.707151 0 53.619348-11.528568 72.952441-32.43676l50.548281-54.677297 219.346484 195.436134c2.201222 1.958608 3.8877 3.671623 5.301967 5.194302-2.473432 0.38067-4.920258 0.760317-7.478628 0.760317L170.276942 777.60117z" p-id="2342" fill="#666" dark="#fff"></path></svg>