<svg t="1618728075441" class="icon" viewBox="0 0 1024 1024" version="1.1" xmlns="http://www.w3.org/2000/svg" p-id="3755" width="200" height="200"><path d="M294.9632 778.9568H227.7888a142.5408 142.5408 0 0 1-95.8976-44.0832 145.4592 145.4592 0 0 1-40.0896-101.5296 149.0944 149.0944 0 0 1 40.6016-103.168 138.5984 138.5984 0 0 1 87.3472-43.008l59.7504-6.2464 14.0288-61.44a244.5312 244.5312 0 0 1 74.8032-129.8944 227.5328 227.5328 0 0 1 359.8848 77.1584l20.0704 43.008 46.08 4.6592a177.8688 177.8688 0 0 1 109.9264 54.9376 179.8656 179.8656 0 0 1 28.16 39.3728 34.5088 34.5088 0 0 0 30.72 19.2h1.9968c25.9072 1.2288 43.4688-27.2384 31.3856-51.6608a253.0816 253.0816 0 0 0-43.1616-62.72 249.344 249.344 0 0 0-157.5936-78.7968 301.6704 301.6704 0 0 0-477.0816-103.1168A330.5984 330.5984 0 0 0 219.2896 404.48a215.04 215.04 0 0 0-134.4 66.56 231.5776 231.5776 0 0 0-1.1264 317.44 211.456 211.456 0 0 0 147.5072 67.8912c0.9728 0 2.9696 0.5632 4.096 0.5632h60.16a37.7344 37.7344 0 0 0 37.2736-39.0656 38.1952 38.1952 0 0 0-37.8368-38.912z m675.84-208.2816a34.7648 34.7648 0 1 0 33.6384 34.7136 34.2016 34.2016 0 0 0-33.536-34.7136z m-17.5616 112.64a39.6288 39.6288 0 0 0-31.6416 17.152 206.2336 206.2336 0 0 1-20.48 25.6 171.7248 171.7248 0 0 1-124.416 52.8896h-49.2544a39.8336 39.8336 0 0 0-39.0656 40.3968 36.5568 36.5568 0 0 0 36.1472 37.3248h46.6432a250.2656 250.2656 0 0 0 211.2512-117.1968 35.84 35.84 0 0 0-29.0816-56.32z m-249.856-99.072L545.9456 421.376a30.72 30.72 0 0 0-44.6976 0l-157.4912 162.7136a33.024 33.024 0 0 0 0 46.08 30.72 30.72 0 0 0 44.6976 0l103.936-107.52v312.32a31.6416 31.6416 0 1 0 63.232 0v-312.32l103.936 107.52a30.72 30.72 0 0 0 44.1344 0 33.1264 33.1264 0 0 0-0.2048-46.08z" fill="#666" dark="#fff" p-id="3756"></path></svg>