<svg xmlns="http://www.w3.org/2000/svg" viewBox="0 0 200 200"><title>资源 1</title><g id="图层_2" data-name="图层 2"><g id="图层_1-2" data-name="图层 1"><rect width="200" height="200" style="fill:#fff"/><path d="M141.87,152.3H127.3a6.09,6.09,0,1,1,0-12.18h14.57a6.09,6.09,0,1,1,0,12.18Z" style="fill:#3cbdd5"/><path d="M99.92,111.13a42.37,42.37,0,1,1,42.29-42.44A42.35,42.35,0,0,1,99.92,111.13Zm0-72.56A30.2,30.2,0,1,0,130,68.85,30.08,30.08,0,0,0,99.92,38.57Zm41.16,135H58.92a27.55,27.55,0,0,1,0-55.1h82.16a27.55,27.55,0,0,1,0,55.1ZM58.92,130.19a16,16,0,0,0,0,32h82.16a16,16,0,0,0,0-32Z" style="fill:#4c4c4c"/></g></g></svg>