<svg t="1631305078639" class="icon" viewBox="0 0 1024 1024" version="1.1" xmlns="http://www.w3.org/2000/svg" p-id="3494" width="200" height="200"><path d="M512 0a512 512 0 1 1 0 1024A512 512 0 0 1 512 0z m0 85.333333a426.666667 426.666667 0 1 0 0 853.333334A426.666667 426.666667 0 0 0 512 85.333333z m0 597.333334a85.333333 85.333333 0 1 1 0 170.666666 85.333333 85.333333 0 0 1 0-170.666666z m0-512a79.872 79.872 0 0 1 79.616 85.162666l-18.944 284.757334a60.842667 60.842667 0 0 1-121.344 0l-18.944-284.757334A79.872 79.872 0 0 1 512 170.666667z" p-id="3495" fill="#666666" dark="#fff"></path></svg>