<svg t="1588871493201" class="icon" viewBox="0 0 1024 1024" version="1.1" xmlns="http://www.w3.org/2000/svg" p-id="1525" data-spm-anchor-id="a313x.7781069.0.i13" width="200" height="200"><path d="M639.9 105.4c12.3 0 24.5 5.3 33.5 14.4 9.5 9.7 14.7 22.8 14.7 37v710.4c0 14.2-5.2 27.3-14.7 37-9 9.2-21.2 14.4-33.5 14.4-8.2 0-16.1-2.2-23.5-6.6L328.6 740.2l-0.7-0.4H102.4c-26.6 0-48.2-23-48.2-51.3v-353c0-28.3 21.6-51.3 48.2-51.3h225.5l0.7-0.4L616.4 112c7.4-4.4 15.3-6.6 23.5-6.6m0-3c-8.4 0-16.9 2.2-25 7.1L327.1 281.2H102.4c-28.3 0-51.2 24.3-51.2 54.3v353c0 30 22.9 54.3 51.2 54.3h224.7l287.8 171.7c8.1 4.8 16.7 7.1 25 7.1 26.8 0 51.3-22.7 51.3-54.4V156.8c0-31.7-24.5-54.4-51.3-54.4z" fill="#454563" p-id="1526"></path><path d="M166.4 388.3c-42.4 0-81.8 11.6-115.2 31.3v269c0 30 22.9 54.3 51.2 54.3h212.1c42.7-37.4 69.5-90.6 69.5-149.8 0-113.1-97.4-204.8-217.6-204.8z" fill="#2faaf7" p-id="1527" data-spm-anchor-id="a313x.7781069.0.i11" class=""></path><path d="M614.4 199.2v625.6L366.5 676.9 348.3 666H128V358H348.3l18.2-10.8 247.9-148m25.5-96.8c-8.3 0-16.9 2.2-25 7.1L327.1 281.2H102.4c-28.3 0-51.2 24.3-51.2 54.3v353c0 30 22.9 54.3 51.2 54.3h224.7l287.8 171.7c8.1 4.8 16.7 7.1 25 7.1 26.8 0 51.3-22.7 51.3-54.4V156.8c0-31.7-24.5-54.4-51.3-54.4zM716.8 300.2c0 18.3 13 33.6 30.9 37.5C832.6 356.2 896 427.2 896 512s-63.4 155.8-148.3 174.3c-17.9 3.9-30.9 19.2-30.9 37.5 0 24.7 23 42.7 47.2 37.5 119.5-26 208.8-127.6 208.8-249.3 0-121.7-89.3-223.3-208.8-249.3-24.2-5.2-47.2 12.8-47.2 37.5z" fill="#666666" p-id="1528" data-spm-anchor-id="a313x.7781069.0.i12" class=""></path></svg>