<?xml version="1.0" encoding="utf-8"?>
<!-- Generator: Adobe Illustrator 23.0.2, SVG Export Plug-In . SVG Version: 6.00 Build 0)  -->
<svg version="1.1" id="图层_1" xmlns="http://www.w3.org/2000/svg" xmlns:xlink="http://www.w3.org/1999/xlink" x="0px" y="0px"
	 viewBox="0 0 200 200" style="enable-background:new 0 0 200 200;" xml:space="preserve">
<style type="text/css">
	.st0{fill:#666666;}
</style>
<path class="st0" d="M169.1,49.7h-19c0,0,0,0-0.1,0c0,0,0,0-0.1,0H50.1c0,0,0,0-0.1,0c0,0,0,0-0.1,0h-19c-2.7,0-5,2.2-5,5
	c0,2.7,2.2,5,5,5h14.2v99.2c0,10.5,8.6,19.1,19.1,19.1h71.6c10.5,0,19.1-8.6,19.1-19.1V59.6h14.2c2.7,0,5-2.2,5-5
	C174,51.9,171.8,49.7,169.1,49.7L169.1,49.7z M145,158.7c0,5.1-4.1,9.2-9.2,9.2H64.2c-5.1,0-9.2-4.1-9.2-9.2V59.6h90V158.7
	L145,158.7z"/>
<path class="st0" d="M74.8,146c2.7,0,5-2.2,5-5c0,0,0,0,0,0V86.4c0-2.7-2.2-5-5-5c-2.7,0-5,2.2-5,5v54.6
	C69.9,143.8,72.1,146,74.8,146C74.8,146,74.8,146,74.8,146z M100,146c2.7,0,5-2.2,5-5c0,0,0,0,0,0V86.4c0-2.7-2.2-5-5-5s-5,2.2-5,5
	v54.6C95,143.8,97.3,146,100,146C100,146,100,146,100,146z M125.2,146c2.7,0,5-2.2,5-5c0,0,0,0,0,0V86.4c0-2.7-2.2-5-5-5s-5,2.2-5,5
	v54.6C120.2,143.8,122.4,146,125.2,146C125.2,146,125.2,146,125.2,146L125.2,146z M70.6,46.1c2.7,0,5-2.2,5-5
	c0-3.6,9.7-9.1,24.4-9.1c14.7,0,24.4,5.5,24.4,9.1c0,2.7,2.2,5,5,5c0,0,0,0,0,0c2.7,0,5-2.2,5-5c0,0,0,0,0,0c0-10.8-14.8-19-34.3-19
	c-19.6,0-34.3,8.2-34.3,19C65.7,43.9,67.9,46.1,70.6,46.1z"/>
</svg>
