<?xml version="1.0" encoding="utf-8"?>
<!-- Generator: Adobe Illustrator 23.0.2, SVG Export Plug-In . SVG Version: 6.00 Build 0)  -->
<svg version="1.1" id="图层_1" xmlns="http://www.w3.org/2000/svg" xmlns:xlink="http://www.w3.org/1999/xlink" x="0px" y="0px"
	 viewBox="0 0 200 200" style="enable-background:new 0 0 200 200;" xml:space="preserve">
<style type="text/css">
	.st0{fill:#666666;}
</style>
<path class="st0" d="M151.4,35.4L130.2,23c-3.4-2-7.1-3-10.8-3c-7.4,0-14.7,3.9-18.7,11L62.9,98.1C57,108.5,52.2,127,52.2,139.2
	c0,0-1.1,36.4,5.7,40.4c0.4,0.3,1,0.4,1.8,0.4c8.3,0,32.6-16.7,32.6-16.7c10.3-6.4,23.2-20.2,29.1-30.7l37.9-67.1
	C165.2,55.1,161.7,41.5,151.4,35.4z M112.7,127.7c-5.2,9.3-17,21.7-26,27.4c-4.3,2.9-8.8,5.7-12.9,8.1l-11.2-6.6
	c-0.3-5.4-0.4-11.5-0.3-17.5c-0.1-10.3,4.3-27.2,9.3-36.1l7.8-13.8l22.5,13.3l5.1-8.6L84.3,80.5l3.5-6.2l22.5,13.3l5.1-8.6
	L92.7,65.6l7.8-13.7l41.3,24.3L112.7,127.7z M150.6,60.6l-3.9,6.9l-41.3-24.4l4.1-7.2c2.1-3.6,5.9-5.9,10-5.9c2,0,3.9,0.5,5.7,1.6
	l21.2,12.5C151.9,47.3,153.8,54.9,150.6,60.6z"/>
</svg>
