<?xml version="1.0" encoding="utf-8"?>
<!-- Generator: Adobe Illustrator 23.0.2, SVG Export Plug-In . SVG Version: 6.00 Build 0)  -->
<svg version="1.1" id="图层_1" xmlns="http://www.w3.org/2000/svg" xmlns:xlink="http://www.w3.org/1999/xlink" x="0px" y="0px"
	 viewBox="0 0 200 200" style="enable-background:new 0 0 200 200;" xml:space="preserve">
<style type="text/css">
	.st0{fill:#666666;}
</style>
<path class="st0" d="M47.7,108.7h91.7L103.3,142c-2.8,2.5-3.1,6.8-0.6,9.6c2.5,2.8,6.8,3.1,9.6,0.6c0.1-0.1,0.2-0.2,0.2-0.2
	l48.9-45.1c2.8-2.6,2.9-6.9,0.4-9.6c-0.1-0.1-0.2-0.3-0.4-0.4l-48.9-45.1c-2.8-2.6-7.1-2.4-9.6,0.4c0,0,0,0,0,0
	c-2.6,2.8-2.4,7.1,0.4,9.6c0,0,0,0,0,0L139.4,95H47.7c-3.8,0-6.8,3-6.8,6.8C40.9,105.6,44,108.7,47.7,108.7
	C47.7,108.7,47.7,108.7,47.7,108.7"/>
</svg>
