<svg t="1588523024982" class="icon" viewBox="0 0 1024 1024" version="1.1" xmlns="http://www.w3.org/2000/svg" p-id="7038" data-spm-anchor-id="a313x.7781069.0.i4" width="200" height="200"><path d="M798.72 836.266667H682.666667v-68.266667h116.053333c80.213333 0 145.066667-64.853333 145.066667-145.066667S877.226667 477.866667 798.72 477.866667H750.933333v-34.133334c0-131.413333-107.52-238.933333-238.933333-238.933333s-238.933333 107.52-238.933333 238.933333v34.133334h-37.546667c-80.213333 0-145.066667 64.853333-145.066667 145.066666S155.306667 768 235.52 768H341.333333v68.266667h-105.813333C117.76 836.266667 20.48 740.693333 20.48 622.933333c0-107.52 80.213333-197.973333 184.32-211.626666C221.866667 257.706667 353.28 136.533333 512 136.533333s288.426667 119.466667 305.493333 274.773334c109.226667 10.24 194.56 100.693333 194.56 211.626666-1.706667 117.76-97.28 213.333333-213.333333 213.333334z" fill="#666666" p-id="7039" data-spm-anchor-id="a313x.7781069.0.i5" class=""></path><path d="M477.866667 563.2h68.266666v307.2h-68.266666z" fill="#2faaf7" p-id="7040" data-spm-anchor-id="a313x.7781069.0.i3" class=""></path><path d="M616.106667 680.96L515.413333 580.266667l-102.4 100.693333-47.786666-47.786667 150.186666-150.186666 148.48 150.186666z" fill="#2faaf7" p-id="7041" data-spm-anchor-id="a313x.7781069.0.i2" class=""></path></svg>