<svg t="1621113569004" class="icon" viewBox="0 0 1024 1024" version="1.1" xmlns="http://www.w3.org/2000/svg" p-id="9364" width="200" height="200"><path d="M466.986667 873.973333a341.333333 341.333333 0 0 1-26.666667-678.346666 32 32 0 0 0 27.52-31.626667 32 32 0 0 0-36.8-31.68 405.333333 405.333333 0 1 0 459.626667 459.2 32 32 0 0 0-32-36.853333 32 32 0 0 0-31.68 27.573333 341.76 341.76 0 0 1-360 291.733333z" fill="#fff" p-id="9365"></path><path d="M577.333333 149.333333a298.986667 298.986667 0 0 1 298.666667 298.666667h-298.666667V149.333333m0-64a64 64 0 0 0-64 64v298.666667a64 64 0 0 0 64 64h298.666667a64 64 0 0 0 64-64 362.666667 362.666667 0 0 0-362.666667-362.666667z" fill="#fff" p-id="9366"></path></svg>