<svg t="1621114014204" class="icon" viewBox="0 0 1024 1024" version="1.1" xmlns="http://www.w3.org/2000/svg" p-id="24923" width="200" height="200"><path d="M807.1168 921.5488H216.8832c-74.7008 0-135.4752-61.6448-135.4752-137.3696V273.152c0-75.7248 60.7744-137.3696 135.4752-137.3696h163.2768c20.1728 0 39.6288 9.3184 52.3776 25.088l69.376 70.8096c0.9216 0.9216 1.792 1.9456 2.56 2.9696 1.1776 1.5872 2.9184 2.4576 4.7616 2.4576h297.9328c74.7008 0 135.4752 61.6448 135.4752 137.3696v409.7024c0 75.7248-60.7744 137.3696-135.5264 137.3696zM216.8832 197.1712c-40.8064 0-74.0352 34.048-74.0352 75.9296v511.0272c0 41.8816 33.2288 75.9296 74.0352 75.9296h590.2848c40.8064 0 74.0352-34.048 74.0352-75.9296V374.4256c0-41.8816-33.2288-75.9296-74.0352-75.9296H509.2352c-20.1728 0-39.5776-9.3184-52.3776-25.0368L387.4816 202.6496a28.0064 28.0064 0 0 1-2.56-2.9696c-1.1776-1.5872-2.9184-2.4576-4.7616-2.4576H216.8832z" fill="#2faaf7" p-id="24924"></path><path d="M805.376 483.7888H219.9552c-16.9472 0-30.72-13.7728-30.72-30.72s13.7728-30.72 30.72-30.72H805.376c16.9472 0 30.72 13.7728 30.72 30.72s-13.7728 30.72-30.72 30.72z" fill="#2faaf7" p-id="24925"></path></svg>