<svg t="1595258005875" class="icon" viewBox="0 0 1024 1024" version="1.1" xmlns="http://www.w3.org/2000/svg" p-id="2113" width="200" height="200"><path d="M728.45 552.273c-112.55 0-203.79 91.24-203.79 203.79 0 112.549 91.24 203.788 203.79 203.788 112.549 0 203.789-91.24 203.789-203.789 0-112.55-91.24-203.789-203.79-203.789z m-151.937 203.79A151.936 151.936 0 0 1 728.45 604.125a150.578 150.578 0 0 1 92.272 31.927l-220.377 200.96a150.747 150.747 0 0 1-23.775-80.95h-0.057zM728.45 907.997a150.578 150.578 0 0 1-92.27-31.983l220.43-200.958c14.888 23.549 23.776 51.174 23.776 81.006 0 83.912-68.025 151.936-151.937 151.936z m-168.24-321.08c2.434 0.68 4.868 1.472 7.586 1.472a27.002 27.002 0 1 0 13.303-50.777l0.34-0.736c-0.963-0.34-1.926-0.566-2.831-0.963l-0.51-0.113a381.65 381.65 0 0 0-19.926-6.736c75.855-43.192 127.595-123.859 127.595-217.432-2.06-137.232-113.895-247.4-251.142-247.4S185.544 174.4 183.483 311.633c0 96.517 55.023 179.335 134.897 221.394C170.203 585.03 69.08 722.58 63.644 879.525h0.453c-0.057 0.735-0.396 1.302-0.396 2.037 0 15.058 12.227 27.342 27.341 27.342 18.85 0 33.003-12.227 33.003-27.342 0-0.735-0.34-1.302-0.397-2.037h0.567c6.962-174.184 144.35-307.722 320.232-307.722 40.757 0 79.647 1.811 115.593 15.454l0.17-0.396v0.056zM434.653 506.93c-107.891 0-195.354-87.463-195.354-195.354 0-107.892 87.463-195.355 195.354-195.355 107.892 0 195.355 87.463 195.355 195.355 0 107.89-87.463 195.354-195.355 195.354z" p-id="2114" fill="#ffffff"></path></svg>