<svg t="1595349277930" class="icon" viewBox="0 0 1024 1024" version="1.1" xmlns="http://www.w3.org/2000/svg" p-id="2755" width="200" height="200"><path d="M752.941176 0c44.333176 0 80.293647 35.960471 80.293648 80.293647v373.097412a280.094118 280.094118 0 0 0-60.235295-10.962824v-163.84a80.474353 80.474353 0 0 1-20.058353 2.529883H150.588235c-6.987294 0-13.733647-0.903529-20.118588-2.590118V722.823529c0 11.083294 9.035294 20.058353 20.118588 20.058353l321.957647 0.060236c1.505882 20.781176 5.180235 40.96 10.962824 60.235294H150.588235c-6.927059 0-13.673412-0.903529-20.058353-2.590118v82.883765c0 11.083294 8.975059 20.058353 20.058353 20.058353h387.072a282.503529 282.503529 0 0 0 70.53553 60.295529L150.588235 963.764706a80.293647 80.293647 0 0 1-80.293647-80.293647V80.293647C70.294588 35.960471 106.255059 0 150.588235 0h602.352941z m0 491.941647a230.881882 230.881882 0 1 1 0 461.763765 230.881882 230.881882 0 0 1 0-461.763765z m0 60.235294a170.646588 170.646588 0 1 0 0 341.293177 170.646588 170.646588 0 0 0 0-341.293177z m5.601883 240.037647c20.841412 0 38.610824 17.769412 38.610823 39.152941a39.755294 39.755294 0 0 1-38.550588 39.152942 39.152941 39.152941 0 1 1 0-78.305883z m-2.048-200.82447c19.877647 0 36.623059 11.203765 36.623059 31.021176 0 60.536471-7.107765 67.162353-7.107765 127.638588 0 15.781647-17.287529 22.347294-29.515294 22.347294-16.263529 0-29.997176-6.625882-29.997177-22.347294 0-60.476235-7.107765-67.102118-7.107764-127.638588 0-19.817412 16.263529-31.021176 37.104941-31.021176zM431.706353 451.764706a30.117647 30.117647 0 0 1 5.421176 59.753412l-5.421176 0.481882H271.058824a30.117647 30.117647 0 0 1-5.421177-59.753412L271.058824 451.764706h160.647529zM752.941176 60.235294H150.588235a20.058353 20.058353 0 0 0-20.058353 20.058353v120.470588c0 11.083294 8.975059 20.118588 20.058353 20.118589h602.352941c11.083294 0 20.058353-9.035294 20.058353-20.118589v-120.470588A20.058353 20.058353 0 0 0 752.941176 60.235294z" p-id="2756" fill="#ffffff"></path></svg>