<svg t="1618444712061" class="icon" viewBox="0 0 1024 1024" version="1.1" xmlns="http://www.w3.org/2000/svg" p-id="3486" width="200" height="200"><path d="M831.2832 463.9744c-14.1312 0-25.6-11.4688-25.6-25.6v-51.0976c0-14.1312 11.4688-25.6 25.6-25.6s25.6 11.4688 25.6 25.6v51.0976c0 14.1312-11.4688 25.6-25.6 25.6z" fill="#ffffff" p-id="3487" data-spm-anchor-id="a313x.7781069.0.i0" class="selected"></path><path d="M831.2832 315.8528c14.1312 0 25.6-11.4688 25.6-25.6v-45.1072c0-48.6912-39.6288-88.32-88.32-88.32H654.336V112.64c0-14.1312-11.4688-25.6-25.6-25.6s-25.6 11.4688-25.6 25.6v44.1344H418.3552V112.64c0-14.1312-11.4688-25.6-25.6-25.6s-25.6 11.4688-25.6 25.6v44.1344H257.3312c-48.6912 0-88.32 39.6288-88.32 88.32V834.56c0 48.6912 39.6288 88.32 88.32 88.32h511.1808c48.6912 0 88.32-39.6288 88.32-88.32v-301.568c0-14.1312-11.4688-25.6-25.6-25.6s-25.6 11.4688-25.6 25.6V834.56c0 20.48-16.64 37.12-37.12 37.12H257.3312c-20.48 0-37.12-16.64-37.12-37.12V245.1456c0-20.48 16.64-37.12 37.12-37.12H367.104v18.944c0 14.1312 11.4688 25.6 25.6 25.6s25.6-11.4688 25.6-25.6v-18.944h184.7808v18.944c0 14.1312 11.4688 25.6 25.6 25.6s25.6-11.4688 25.6-25.6v-18.944h114.2272c20.48 0 37.12 16.64 37.12 37.12v45.1072c0.0512 14.1312 11.52 25.6 25.6512 25.6z" fill="#ffffff" p-id="3488" data-spm-anchor-id="a313x.7781069.0.i2" class="selected"></path><path d="M701.7984 440.064h-384c-14.1312 0-25.6-11.4688-25.6-25.6s11.4688-25.6 25.6-25.6h384c14.1312 0 25.6 11.4688 25.6 25.6s-11.4688 25.6-25.6 25.6zM608.8704 571.392H317.7984c-14.1312 0-25.6-11.4688-25.6-25.6s11.4688-25.6 25.6-25.6h291.072c14.1312 0 25.6 11.4688 25.6 25.6s-11.4688 25.6-25.6 25.6zM514.4064 697.344h-196.608c-14.1312 0-25.6-11.4688-25.6-25.6s11.4688-25.6 25.6-25.6h196.6592c14.1312 0 25.6 11.4688 25.6 25.6s-11.4688 25.6-25.6512 25.6z" fill="#ffffff" p-id="3489" data-spm-anchor-id="a313x.7781069.0.i1" class="selected"></path></svg>